<svg xmlns="http://www.w3.org/2000/svg" viewBox="0 0 300 62" width="300" height="62">
  <title>Micro Hauling - wordmark, color</title>
  <path d="M13,3 H35 A7,7 0 0 1 42,10 V32 A7,7 0 0 1 35,39 H13 A7,7 0 0 1 6,32 V10 A7,7 0 0 1 13,3 Z" fill="#172019"/>
  <path d="M29.4 30.3V23.36Q29.4 22.07 29.5 20.71Q29.6 19.35 29.71 18.43Q29.82 17.5 29.85 17.25H29.74L26.18 30.3H21.34L17.75 17.28H17.64Q17.67 17.53 17.8 18.44Q17.92 19.35 18.03 20.71Q18.14 22.07 18.14 23.36V30.3H12.46V11.04H21.2L24.11 22.15H24.22L27.11 11.04H35.53V30.3Z" fill="#ffffff"/>
  <path d="M48.52 31V10.36H55.15V31Z M79.65 18.85H73.32Q73.32 17.05 72.37 16Q71.43 14.95 69.69 14.95Q67.68 14.95 66.73 16.21Q65.79 17.47 65.79 19.72V21.64Q65.79 23.86 66.73 25.13Q67.68 26.41 69.63 26.41Q71.55 26.41 72.54 25.42Q73.53 24.43 73.53 22.63H79.65Q79.65 26.86 77.05 29.11Q74.46 31.36 69.72 31.36Q64.44 31.36 61.72 28.66Q59.01 25.96 59.01 20.68Q59.01 15.4 61.72 12.7Q64.44 10 69.72 10Q74.31 10 76.98 12.29Q79.65 14.59 79.65 18.85Z M98.82 22.36 103.41 31H95.97L92.31 23.47H89.85V31H83.22V10.36H95.85Q98.07 10.36 99.64 11.21Q101.22 12.07 102.02 13.53Q102.81 14.98 102.81 16.69Q102.81 18.58 101.79 20.11Q100.77 21.64 98.82 22.36ZM94.2 15.07H89.85V18.88H94.2Q94.98 18.88 95.52 18.33Q96.06 17.77 96.06 16.96Q96.06 16.15 95.52 15.61Q94.98 15.07 94.2 15.07Z M127.47 20.68Q127.47 25.9 124.56 28.63Q121.65 31.36 116.31 31.36Q110.97 31.36 108.07 28.64Q105.18 25.93 105.18 20.68Q105.18 15.43 108.07 12.71Q110.97 10 116.31 10Q121.65 10 124.56 12.73Q127.47 15.46 127.47 20.68ZM111.96 19.72V21.64Q111.96 23.83 113.07 25.12Q114.18 26.41 116.31 26.41Q118.44 26.41 119.56 25.12Q120.69 23.83 120.69 21.64V19.72Q120.69 17.53 119.56 16.24Q118.44 14.95 116.31 14.95Q114.18 14.95 113.07 16.24Q111.96 17.53 111.96 19.72Z M154.95 31V23.17H147.66V31H141.03V10.36H147.66V17.89H154.95V10.36H161.58V31Z M179.85 31 178.98 28.09H171.75L170.88 31H164.1L171.63 10.36H179.34L186.87 31ZM173.13 23.47H177.6L175.44 16.12H175.32Z M198.63 31.36Q193.72 31.36 191.03 29.14Q188.34 26.92 188.34 22.69V10.36H194.97V22.6Q194.97 24.34 195.91 25.38Q196.84 26.41 198.6 26.41Q200.38 26.41 201.32 25.36Q202.26 24.31 202.26 22.6V10.36H208.9V22.69Q208.9 26.92 206.23 29.14Q203.56 31.36 198.63 31.36Z M213.33 10.36H219.96V25.72H230.55V31H213.33Z M233.65 31V10.36H240.28V31Z M259.78 31 251.11 20.98V31H245.02V10.36H250.81L259.48 20.53V10.36H265.57V31Z M290.88 17.83H284.55Q284.55 16.54 283.41 15.74Q282.27 14.95 280.65 14.95Q278.31 14.95 277.11 16.2Q275.91 17.44 275.91 19.72V21.64Q275.91 23.92 277.11 25.16Q278.31 26.41 280.65 26.41Q282.27 26.41 283.41 25.64Q284.55 24.88 284.55 23.68H279.87V19.48H290.88V31H287.46L286.8 28.96Q283.98 31.36 279.42 31.36Q274.29 31.36 271.71 28.68Q269.13 25.99 269.13 20.68Q269.13 15.43 272.06 12.71Q274.98 10 280.38 10Q283.35 10 285.72 10.9Q288.09 11.8 289.49 13.55Q290.88 15.31 290.88 17.83Z" fill="#172019"/>
  <path d="M41.68 53.84V52.91Q41.68 52.85 41.73 52.81Q41.77 52.76 41.83 52.76H42.98Q43.04 52.76 43.09 52.81Q43.13 52.85 43.13 52.91V53.86Q43.13 54.3 43.37 54.58Q43.61 54.85 43.99 54.85Q44.38 54.85 44.63 54.58Q44.87 54.3 44.87 53.86V47.4Q44.87 47.34 44.91 47.29Q44.96 47.25 45.02 47.25H46.17Q46.23 47.25 46.28 47.29Q46.32 47.34 46.32 47.4V53.84Q46.32 54.86 45.68 55.48Q45.03 56.1 43.99 56.1Q42.96 56.1 42.32 55.48Q41.68 54.86 41.68 53.84Z M50.83 53.58V47.4Q50.83 47.34 50.87 47.29Q50.92 47.25 50.98 47.25H52.13Q52.19 47.25 52.23 47.29Q52.28 47.34 52.28 47.4V53.73Q52.28 54.23 52.53 54.54Q52.78 54.85 53.19 54.85Q53.6 54.85 53.85 54.54Q54.1 54.23 54.1 53.73V47.4Q54.1 47.34 54.15 47.29Q54.19 47.25 54.25 47.25H55.4Q55.47 47.25 55.51 47.29Q55.55 47.34 55.55 47.4V53.58Q55.55 54.71 54.9 55.41Q54.25 56.1 53.19 56.1Q52.12 56.1 51.47 55.41Q50.83 54.71 50.83 53.58Z M63.64 47.25H64.78Q64.84 47.25 64.88 47.29Q64.93 47.34 64.93 47.4V55.85Q64.93 55.91 64.88 55.96Q64.84 56 64.78 56H63.47Q63.34 56 63.3 55.88L61.44 50.58Q61.43 50.54 61.4 50.54Q61.37 50.55 61.37 50.59L61.38 55.85Q61.38 55.91 61.33 55.96Q61.29 56 61.23 56H60.09Q60.03 56 59.98 55.96Q59.94 55.91 59.94 55.85V47.4Q59.94 47.34 59.98 47.29Q60.03 47.25 60.09 47.25H61.38Q61.5 47.25 61.54 47.38L63.42 52.64Q63.43 52.67 63.46 52.67Q63.49 52.66 63.49 52.62V47.4Q63.49 47.34 63.53 47.29Q63.58 47.25 63.64 47.25Z M69.47 55.85V47.4Q69.47 47.34 69.52 47.29Q69.56 47.25 69.62 47.25H70.77Q70.83 47.25 70.88 47.29Q70.92 47.34 70.92 47.4V50.85Q70.92 50.9 70.95 50.91Q70.97 50.91 71 50.88L72.87 47.36Q72.93 47.25 73.06 47.25H74.3Q74.38 47.25 74.41 47.3Q74.43 47.35 74.4 47.42L72.52 50.94Q72.51 50.99 72.51 51.01L74.53 55.83Q74.55 55.85 74.55 55.9Q74.55 56 74.42 56H73.18Q73.05 56 73.01 55.89L71.53 52.27Q71.52 52.24 71.5 52.24Q71.47 52.25 71.45 52.27L70.95 53.11Q70.92 53.16 70.92 53.19V55.85Q70.92 55.91 70.88 55.96Q70.83 56 70.77 56H69.62Q69.56 56 69.52 55.96Q69.47 55.91 69.47 55.85Z M87.63 55.88 86.57 52.29Q86.54 52.24 86.51 52.24H85.84Q85.78 52.24 85.78 52.3V55.85Q85.78 55.91 85.74 55.96Q85.69 56 85.63 56H84.48Q84.42 56 84.37 55.96Q84.33 55.91 84.33 55.85V47.4Q84.33 47.34 84.37 47.29Q84.42 47.25 84.48 47.25H86.83Q87.49 47.25 88 47.57Q88.51 47.89 88.79 48.47Q89.07 49.05 89.07 49.8Q89.07 50.58 88.77 51.14Q88.47 51.7 87.93 51.99Q87.88 52 87.89 52.06L89.12 55.83Q89.13 55.85 89.13 55.89Q89.13 56 88.99 56H87.79Q87.67 56 87.63 55.88ZM85.78 48.56V51.05Q85.78 51.11 85.84 51.11H86.61Q87.06 51.11 87.34 50.76Q87.62 50.41 87.62 49.81Q87.62 49.21 87.34 48.86Q87.06 48.5 86.61 48.5H85.84Q85.78 48.5 85.78 48.56Z M97.51 48.5H94.81Q94.75 48.5 94.75 48.56V50.92Q94.75 50.99 94.81 50.99H96.41Q96.47 50.99 96.52 51.03Q96.56 51.08 96.56 51.14V52.1Q96.56 52.16 96.52 52.21Q96.47 52.25 96.41 52.25H94.81Q94.75 52.25 94.75 52.31V54.69Q94.75 54.75 94.81 54.75H97.51Q97.58 54.75 97.62 54.79Q97.66 54.84 97.66 54.9V55.85Q97.66 55.91 97.62 55.96Q97.58 56 97.51 56H93.45Q93.39 56 93.34 55.96Q93.3 55.91 93.3 55.85V47.4Q93.3 47.34 93.34 47.29Q93.39 47.25 93.45 47.25H97.51Q97.58 47.25 97.62 47.29Q97.66 47.34 97.66 47.4V48.35Q97.66 48.41 97.62 48.46Q97.58 48.5 97.51 48.5Z M106.05 47.25H107.2Q107.27 47.25 107.31 47.29Q107.35 47.34 107.35 47.4V55.85Q107.35 55.91 107.31 55.96Q107.27 56 107.2 56H106.05Q105.99 56 105.95 55.96Q105.9 55.91 105.9 55.85V49.95Q105.9 49.9 105.88 49.9Q105.85 49.9 105.83 49.94L104.74 51.91Q104.68 52.01 104.63 52.01Q104.58 52.01 104.52 51.91L103.43 49.94Q103.4 49.9 103.38 49.9Q103.35 49.9 103.35 49.95V55.85Q103.35 55.91 103.31 55.96Q103.27 56 103.2 56H102.05Q101.99 56 101.95 55.96Q101.9 55.91 101.9 55.85V47.4Q101.9 47.34 101.95 47.29Q101.99 47.25 102.05 47.25H103.2Q103.33 47.25 103.39 47.35L104.6 49.49Q104.64 49.54 104.68 49.49L105.87 47.35Q105.93 47.25 106.05 47.25Z M111.71 53.73V49.52Q111.71 48.45 112.37 47.8Q113.03 47.15 114.1 47.15Q115.18 47.15 115.84 47.8Q116.5 48.45 116.5 49.52V53.73Q116.5 54.8 115.84 55.45Q115.18 56.1 114.1 56.1Q113.03 56.1 112.37 55.45Q111.71 54.8 111.71 53.73ZM115.05 53.79V49.46Q115.05 48.99 114.79 48.69Q114.53 48.4 114.1 48.4Q113.68 48.4 113.42 48.69Q113.16 48.99 113.16 49.46V53.79Q113.16 54.26 113.42 54.56Q113.68 54.85 114.1 54.85Q114.53 54.85 114.79 54.56Q115.05 54.26 115.05 53.79Z M122.34 55.86 120.55 47.41 120.54 47.36Q120.54 47.25 120.68 47.25H121.94Q122.09 47.25 122.1 47.39L123.14 53.4Q123.15 53.44 123.18 53.44Q123.2 53.44 123.22 53.4L124.23 47.39Q124.24 47.25 124.39 47.25H125.62Q125.78 47.25 125.74 47.41L123.94 55.86Q123.92 56 123.78 56H122.5Q122.37 56 122.34 55.86Z M132.52 55.86 132.28 54.55Q132.28 54.49 132.2 54.49H130.38Q130.3 54.49 130.3 54.55L130.07 55.86Q130.05 56 129.9 56H128.77Q128.59 56 128.63 55.84L130.48 47.39Q130.5 47.25 130.64 47.25H131.97Q132.1 47.25 132.13 47.39L133.98 55.84V55.89Q133.98 56 133.84 56H132.68Q132.53 56 132.52 55.86ZM130.59 53.35H131.98Q132.05 53.35 132.04 53.29L131.32 49.34Q131.3 49.3 131.28 49.3Q131.25 49.3 131.24 49.34L130.53 53.29Q130.52 53.35 130.59 53.35Z M138.03 55.85V47.4Q138.03 47.34 138.08 47.29Q138.12 47.25 138.18 47.25H139.33Q139.4 47.25 139.44 47.29Q139.48 47.34 139.48 47.4V54.69Q139.48 54.75 139.55 54.75H142.25Q142.31 54.75 142.35 54.79Q142.4 54.84 142.4 54.9V55.85Q142.4 55.91 142.35 55.96Q142.31 56 142.25 56H138.18Q138.12 56 138.08 55.96Q138.03 55.91 138.03 55.85Z M151.92 52.43Q151.92 52.04 152.17 51.79Q152.42 51.54 152.8 51.54Q153.19 51.54 153.43 51.79Q153.68 52.04 153.68 52.43Q153.68 52.81 153.43 53.06Q153.18 53.31 152.8 53.31Q152.42 53.31 152.17 53.06Q151.92 52.81 151.92 52.43Z M163.66 53.58V47.4Q163.66 47.34 163.7 47.29Q163.74 47.25 163.81 47.25H164.96Q165.02 47.25 165.06 47.29Q165.11 47.34 165.11 47.4V53.73Q165.11 54.23 165.36 54.54Q165.61 54.85 166.02 54.85Q166.43 54.85 166.68 54.54Q166.93 54.23 166.93 53.73V47.4Q166.93 47.34 166.97 47.29Q167.02 47.25 167.08 47.25H168.23Q168.29 47.25 168.34 47.29Q168.38 47.34 168.38 47.4V53.58Q168.38 54.71 167.73 55.41Q167.08 56.1 166.02 56.1Q164.94 56.1 164.3 55.41Q163.66 54.71 163.66 53.58Z M177.52 47.4V48.35Q177.52 48.41 177.47 48.46Q177.43 48.5 177.37 48.5H175.78Q175.72 48.5 175.72 48.56V55.85Q175.72 55.91 175.67 55.96Q175.63 56 175.57 56H174.42Q174.35 56 174.31 55.96Q174.27 55.91 174.27 55.85V48.56Q174.27 48.5 174.2 48.5H172.7Q172.64 48.5 172.6 48.46Q172.55 48.41 172.55 48.35V47.4Q172.55 47.34 172.6 47.29Q172.64 47.25 172.7 47.25H177.37Q177.43 47.25 177.47 47.29Q177.52 47.34 177.52 47.4Z M184.52 55.86 184.28 54.55Q184.28 54.49 184.2 54.49H182.38Q182.3 54.49 182.3 54.55L182.07 55.86Q182.05 56 181.9 56H180.77Q180.59 56 180.63 55.84L182.48 47.39Q182.5 47.25 182.64 47.25H183.97Q184.1 47.25 184.13 47.39L185.98 55.84V55.89Q185.98 56 185.84 56H184.68Q184.53 56 184.52 55.86ZM182.59 53.35H183.98Q184.05 53.35 184.04 53.29L183.32 49.34Q183.3 49.3 183.28 49.3Q183.25 49.3 183.24 49.34L182.53 53.29Q182.52 53.35 182.59 53.35Z M193.35 47.25H194.5Q194.56 47.25 194.6 47.29Q194.65 47.34 194.65 47.4V55.85Q194.65 55.91 194.6 55.96Q194.56 56 194.5 56H193.35Q193.28 56 193.24 55.96Q193.2 55.91 193.2 55.85V52.31Q193.2 52.25 193.13 52.25H191.55Q191.48 52.25 191.48 52.31V55.85Q191.48 55.91 191.44 55.96Q191.4 56 191.33 56H190.18Q190.12 56 190.08 55.96Q190.03 55.91 190.03 55.85V47.4Q190.03 47.34 190.08 47.29Q190.12 47.25 190.18 47.25H191.33Q191.4 47.25 191.44 47.29Q191.48 47.34 191.48 47.4V50.92Q191.48 50.99 191.55 50.99H193.13Q193.2 50.99 193.2 50.92V47.4Q193.2 47.34 193.24 47.29Q193.28 47.25 193.35 47.25Z M204.74 53.75V49.49Q204.74 48.41 205.39 47.78Q206.03 47.15 207.09 47.15Q208.17 47.15 208.82 47.78Q209.47 48.41 209.47 49.49V49.64Q209.47 49.7 209.43 49.75Q209.38 49.8 209.32 49.8L208.16 49.85Q208.01 49.85 208.01 49.7V49.39Q208.01 48.95 207.76 48.67Q207.51 48.4 207.09 48.4Q206.69 48.4 206.44 48.67Q206.19 48.95 206.19 49.39V53.86Q206.19 54.3 206.44 54.58Q206.69 54.85 207.09 54.85Q207.51 54.85 207.76 54.58Q208.01 54.3 208.01 53.86V53.55Q208.01 53.49 208.05 53.44Q208.09 53.4 208.16 53.4L209.32 53.45Q209.38 53.45 209.43 53.49Q209.47 53.54 209.47 53.6V53.75Q209.47 54.81 208.82 55.46Q208.17 56.1 207.09 56.1Q206.03 56.1 205.39 55.46Q204.74 54.81 204.74 53.75Z M213.67 53.73V49.52Q213.67 48.45 214.32 47.8Q214.98 47.15 216.05 47.15Q217.13 47.15 217.79 47.8Q218.45 48.45 218.45 49.52V53.73Q218.45 54.8 217.79 55.45Q217.13 56.1 216.05 56.1Q214.98 56.1 214.32 55.45Q213.67 54.8 213.67 53.73ZM217 53.79V49.46Q217 48.99 216.74 48.69Q216.48 48.4 216.05 48.4Q215.63 48.4 215.37 48.69Q215.12 48.99 215.12 49.46V53.79Q215.12 54.26 215.37 54.56Q215.63 54.85 216.05 54.85Q216.48 54.85 216.74 54.56Q217 54.26 217 53.79Z M222.8 53.58V47.4Q222.8 47.34 222.84 47.29Q222.88 47.25 222.95 47.25H224.1Q224.16 47.25 224.2 47.29Q224.25 47.34 224.25 47.4V53.73Q224.25 54.23 224.5 54.54Q224.75 54.85 225.16 54.85Q225.57 54.85 225.82 54.54Q226.07 54.23 226.07 53.73V47.4Q226.07 47.34 226.12 47.29Q226.16 47.25 226.22 47.25H227.37Q227.43 47.25 227.48 47.29Q227.52 47.34 227.52 47.4V53.58Q227.52 54.71 226.87 55.41Q226.22 56.1 225.16 56.1Q224.08 56.1 223.44 55.41Q222.8 54.71 222.8 53.58Z M235.61 47.25H236.75Q236.81 47.25 236.85 47.29Q236.9 47.34 236.9 47.4V55.85Q236.9 55.91 236.85 55.96Q236.81 56 236.75 56H235.43Q235.31 56 235.27 55.88L233.41 50.58Q233.4 50.54 233.37 50.54Q233.33 50.55 233.33 50.59L233.35 55.85Q233.35 55.91 233.3 55.96Q233.26 56 233.2 56H232.06Q232 56 231.95 55.96Q231.91 55.91 231.91 55.85V47.4Q231.91 47.34 231.95 47.29Q232 47.25 232.06 47.25H233.35Q233.47 47.25 233.51 47.38L235.38 52.64Q235.4 52.67 235.43 52.67Q235.46 52.66 235.46 52.62V47.4Q235.46 47.34 235.5 47.29Q235.55 47.25 235.61 47.25Z M246.08 47.4V48.35Q246.08 48.41 246.03 48.46Q245.99 48.5 245.93 48.5H244.34Q244.28 48.5 244.28 48.56V55.85Q244.28 55.91 244.23 55.96Q244.19 56 244.13 56H242.98Q242.92 56 242.87 55.96Q242.83 55.91 242.83 55.85V48.56Q242.83 48.5 242.77 48.5H241.27Q241.2 48.5 241.16 48.46Q241.12 48.41 241.12 48.35V47.4Q241.12 47.34 241.16 47.29Q241.2 47.25 241.27 47.25H245.93Q245.99 47.25 246.03 47.29Q246.08 47.34 246.08 47.4Z M251.75 55.84V52.42L251.74 52.35L250 47.42Q249.99 47.4 249.99 47.36Q249.99 47.25 250.12 47.25H251.32Q251.46 47.25 251.5 47.38L252.44 50.59Q252.45 50.62 252.47 50.62Q252.5 50.62 252.51 50.59L253.45 47.38Q253.49 47.25 253.62 47.25H254.82Q254.9 47.25 254.94 47.29Q254.97 47.34 254.95 47.42L253.21 52.35L253.2 52.42V55.84Q253.2 55.9 253.16 55.94Q253.11 55.99 253.05 55.99H251.9Q251.84 55.99 251.79 55.94Q251.75 55.9 251.75 55.84Z" fill="#0f7b5f"/>
</svg>
